<mxfile host="app.diagrams.net" agent="Mozilla/5.0 (X11; Linux x86_64) AppleWebKit/537.36 (KHTML, like Gecko) Chrome/131.0.0.0 Safari/537.36" version="26.0.5">
  <diagram name="Page-1" id="uI_B7MtKSEQQjMopT92-">
    <mxGraphModel dx="1434" dy="786" grid="1" gridSize="10" guides="1" tooltips="1" connect="1" arrows="1" fold="1" page="1" pageScale="1" pageWidth="850" pageHeight="1100" math="0" shadow="0">
      <root>
        <mxCell id="0" />
        <mxCell id="1" parent="0" />
        <mxCell id="m8cmQkAT3gwhsooQlYNe-2" value="&lt;font style=&quot;font-size: 14px;&quot;&gt;&lt;h1 style=&quot;margin: 0px 0px 1em; padding: 0.9em 0px 0px; border: 0px; outline: 0px; vertical-align: baseline; background: 0px 0px rgb(249, 249, 250); text-align: center; font-weight: 300; line-height: 1.2; color: rgb(55, 54, 55); font-family: &amp;quot;Source Sans Pro&amp;quot;, Roboto, &amp;quot;San Francisco&amp;quot;, &amp;quot;Segoe UI&amp;quot;, sans-serif;&quot; id=&quot;gen-h1-1-00000001&quot; class=&quot;navigable-headline&quot;&gt;&lt;span style=&quot;background-color: transparent; color: light-dark(rgb(0, 0, 0), rgb(255, 255, 255)); font-family: Helvetica; text-align: left;&quot;&gt;Edit&lt;/span&gt;&lt;/h1&gt;&lt;h1 style=&quot;margin: 0px 0px 1em; padding: 0.9em 0px 0px; border: 0px; outline: 0px; vertical-align: baseline; background: 0px 0px rgb(249, 249, 250); text-align: center; font-weight: 300; line-height: 1.2; color: rgb(55, 54, 55); font-family: &amp;quot;Source Sans Pro&amp;quot;, Roboto, &amp;quot;San Francisco&amp;quot;, &amp;quot;Segoe UI&amp;quot;, sans-serif;&quot; id=&quot;gen-h1-1-00000001&quot; class=&quot;navigable-headline&quot;&gt;&lt;span style=&quot;background-color: transparent; color: light-dark(rgb(0, 0, 0), rgb(255, 255, 255)); font-family: Helvetica; text-align: left;&quot;&gt;LLM&lt;/span&gt;&lt;/h1&gt;&lt;h1 style=&quot;margin: 0px 0px 1em; padding: 0.9em 0px 0px; border: 0px; outline: 0px; vertical-align: baseline; background: 0px 0px rgb(249, 249, 250); text-align: center; font-weight: 300; line-height: 1.2; color: rgb(55, 54, 55); font-family: &amp;quot;Source Sans Pro&amp;quot;, Roboto, &amp;quot;San Francisco&amp;quot;, &amp;quot;Segoe UI&amp;quot;, sans-serif;&quot; id=&quot;gen-h1-1-00000001&quot; class=&quot;navigable-headline&quot;&gt;&lt;span style=&quot;background-color: transparent; color: light-dark(rgb(0, 0, 0), rgb(255, 255, 255)); font-family: Helvetica; text-align: left;&quot;&gt;Edit&lt;/span&gt;&lt;/h1&gt;&lt;/font&gt;&lt;div&gt;&lt;font style=&quot;font-size: 14px;&quot;&gt;Edit&lt;/font&gt;&lt;/div&gt;&lt;div&gt;&lt;font style=&quot;font-size: 14px;&quot;&gt;FEV&lt;/font&gt;&lt;/div&gt;" style="text;strokeColor=none;align=left;fillColor=none;html=1;verticalAlign=middle;whiteSpace=wrap;rounded=0;strokeWidth=8;fontSize=15;" vertex="1" parent="1">
          <mxGeometry x="300" y="560" width="180" height="340" as="geometry" />
        </mxCell>
      </root>
    </mxGraphModel>
  </diagram>
</mxfile>
